<svg width="48" height="48" viewBox="0 0 48 48" fill="none" xmlns="http://www.w3.org/2000/svg">
<path fill-rule="evenodd" clip-rule="evenodd" d="M47.4968 29.6543C47.1918 29.5331 46.8435 29.6089 46.6168 29.8462L43.2001 33.4375V12.1059H43.2041L46.4641 8.58598C46.764 8.26189 46.7443 7.75543 46.4198 7.45551L46.4191 7.45478L45.2457 6.36277L46.8761 4.6028C47.1757 4.27834 47.1555 3.77225 46.8311 3.4727L43.311 0.212771C42.9869 -0.0871487 42.4808 -0.06774 42.1809 0.256715L36.4929 6.39829H8.80005C8.79749 4.19009 7.00818 2.40083 4.79993 2.39826H4.00012C1.79187 2.40083 0.00256348 4.19009 0 6.39829V40.7975C0 41.2391 0.358154 41.5972 0.800171 41.5972H12.9104L11.2302 43.6147C10.9479 43.9545 10.994 44.4587 11.3335 44.7411L15.0223 47.8124C15.3618 48.0951 15.8665 48.049 16.1492 47.7095L16.1495 47.7092L20.2441 42.79C20.5269 42.4494 20.7089 42.036 20.7689 41.5972H35.428L30.62 46.6461C30.3157 46.9661 30.3285 47.4726 30.6486 47.7769C30.7972 47.9183 30.9946 47.9974 31.2001 47.997H47.1998C47.6418 47.997 48 47.6388 48 47.1972V30.3977C48 30.0703 47.8008 29.7759 47.4968 29.6543ZM44.7466 8.07805L43.2001 9.75086V8.57426L44.1599 7.53425L44.7466 8.07805ZM41.6001 7.94695V7.9356H41.6096L42.9847 6.45102L40.6351 4.27725L32.4847 13.0851L34.8344 15.2589L41.6001 7.94695ZM33.2977 16.0155L31.4575 16.5523L31.8505 14.6755L33.2977 16.0155ZM45.1575 4.10147L42.809 1.92879L41.7217 3.1032L44.0706 5.27808L45.1575 4.10147ZM4.00012 3.9982H4.79993C6.12561 3.9982 7.20007 5.07264 7.20007 6.39829V36.8183C6.5116 36.2888 5.66821 36.0002 4.79993 35.9973H4.00012C3.13147 36.0002 2.28845 36.2888 1.59998 36.8183V6.39829C1.59998 5.07264 2.67444 3.9982 4.00012 3.9982ZM4.79993 37.5972H4.00012C2.67444 37.5972 1.59998 38.672 1.59998 39.9973H7.20007C7.20007 38.672 6.12561 37.5972 4.79993 37.5972ZM19.0151 41.7668L18.5032 42.3813L16.0441 40.3342L16.5553 39.719C16.838 39.3795 17.3423 39.3334 17.6818 39.6161L17.6821 39.6163L17.6825 39.6165L18.9119 40.6374C19.2517 40.9198 19.2982 41.424 19.0159 41.7639L19.0151 41.7646V41.7668ZM12.9727 44.0237L15.4321 46.0708L17.4792 43.611L15.0201 41.5636L12.9727 44.0237ZM20.4327 39.9973C20.2998 39.7758 20.1317 39.5776 19.9351 39.4103L18.7057 38.3871C17.6869 37.539 16.1737 37.6771 15.3256 38.6958L14.2401 39.9973H8.80005V7.99822H35.0127L30.7672 12.586C30.7064 12.6545 30.6581 12.7336 30.6248 12.8189C30.6152 12.842 30.6079 12.8636 30.5999 12.8878L30.598 12.8933L30.595 12.9014L30.5896 12.9154C30.5838 12.9304 30.5778 12.9456 30.5742 12.9614L29.6191 17.5275C29.5291 17.96 29.8066 18.3837 30.2391 18.4738C30.3677 18.5005 30.5006 18.4954 30.6262 18.4588L35.1064 17.1533C35.1176 17.1497 35.1278 17.1447 35.1379 17.1396C35.1467 17.1352 35.1555 17.1309 35.1647 17.1276C35.1848 17.1203 35.2057 17.1101 35.2273 17.0994C35.317 17.0588 35.3983 17.0013 35.4672 16.9306L41.6001 10.3027V35.1173L36.9521 39.9973H20.4327ZM33.0663 46.3971H46.4V32.3975L33.0663 46.3971ZM38.4001 44.7971C38.0764 44.7971 37.7845 44.6023 37.6608 44.3035C37.537 44.0047 37.6055 43.6604 37.8344 43.4316L43.4344 37.832C43.5842 37.6818 43.7878 37.5976 43.9999 37.5976C44.4415 37.5976 44.8 37.9554 44.8 38.3974V43.9973C44.8 44.439 44.4419 44.7971 43.9999 44.7971H38.4001ZM43.2001 43.1972V40.3284L40.3312 43.1972H43.2001ZM29.6001 30.3977H35.1998C35.6418 30.3977 36 30.7558 36 31.1975C36 31.6395 35.6418 31.9976 35.2002 31.9976H12.8002C12.3582 31.9976 12 31.6395 12 31.1975C12 30.7558 12.3582 30.3977 12.8002 30.3977H18.3999V21.5979C18.4006 21.3858 18.4845 21.1822 18.6335 21.0313L23.4335 16.2315C23.7458 15.9192 24.2523 15.9192 24.5647 16.2315L29.3646 21.0313C29.5144 21.1819 29.599 21.3855 29.6001 21.5979V30.3977ZM26.8689 20.7977L24 17.9289L21.1311 20.7977H26.8689ZM28.0001 22.3976V30.3977H19.9999V22.3976H28.0001ZM23.1998 12.798H24.8002V14.398H23.1998V12.798ZM24.8002 35.1975V33.5976H23.1998V35.1975H24.8002Z" fill="black"/>
</svg>
